<?xml version="1.0" encoding="utf-8"?>
<!DOCTYPE svg PUBLIC "-//W3C//DTD SVG 1.0//EN" "http://www.w3.org/TR/2001/REC-SVG-20010904/DTD/svg10.dtd">
<svg version="1.0" xmlns="http://www.w3.org/2000/svg" width="2048px" height="2048px" viewBox="0 0 2048 2048" preserveAspectRatio="xMidYMid meet">
 <g fill="#010101">
  <path d="M955 1921.80 c-153.40 -11.80 -301.40 -63.40 -431 -150.40 -78.40 -52.60 -152.20 -121.60 -212.20 -198.40 -93.80 -120.20 -157.60 -273.40 -176.60 -425 -8.20 -64.40 -9.20 -160 -2.40 -221 11.40 -100.60 41 -203 84.80 -292 114.40 -232.20 319 -403.80 563.40 -472.80 108.80 -30.60 220.60 -40.40 335 -29 426.20 42.20 769.60 393.60 802.20 821 3.40 46.80 1.40 148.20 -4 187.80 -18.20 133.20 -54.40 238.40 -120 347 -43.40 72 -99.40 140.80 -158.20 194.60 -152.80 139.80 -341.40 222.80 -541.80 238.40 -30.20 2.20 -108.80 2.20 -139.20 -0.20z m138.40 -326.80 c180.40 -23.80 350.80 -139.60 419.60 -286 23.20 -49 35.20 -104.80 32.20 -148.60 -8.80 -124.60 -94 -237.60 -207.80 -275.40 -51.20 -17 -92.40 -19 -140.20 -6.80 -17.60 4.60 -41.20 13.40 -41.20 15.80 0 0.80 2 3 4.20 5.20 7.60 6.80 39 49.80 49.80 68.20 23.60 39.80 30 53.40 30 64 0 23.60 -5 23.20 -145 -12.80 -60.40 -15.60 -142.80 -36.60 -183 -46.60 -40.20 -10.20 -75.40 -19.60 -78.20 -21.20 -6.60 -3.20 -7.80 -6.40 -7.80 -18.80 0 -12 2.60 -15.40 30.80 -39.60 103.80 -89.80 232.60 -143.80 371.20 -156.40 34 -3 110.40 -2.40 142 1 50.60 5.60 98 15.80 139.60 29.80 11.20 3.80 20.40 6.60 20.40 6 0 -0.40 -4.60 -10 -10.20 -21 -36.40 -72.80 -100.60 -147.40 -168 -195 -91 -64.60 -186.60 -98.80 -297.80 -106.80 -59.20 -4.20 -134.20 5.80 -198 26.40 -136.40 44.20 -249 137.20 -311.80 257.80 -38.40 73.80 -54 156.20 -42.40 224.20 14.80 85.80 59 156.80 128.60 206.60 55.80 40 134 62 195.20 55.20 19.60 -2.20 47.20 -7.40 51 -9.60 0.80 -0.40 -1.60 -4.60 -5.40 -9.20 -14.60 -18 -33.80 -48.80 -47.20 -75.40 -12.60 -25 -14 -29.20 -14 -39.60 0 -6.40 1 -12.60 2.40 -14 6.20 -6.20 25.40 -2.80 137.60 25.60 61 15.40 140.20 35.20 176 44 35.80 8.80 67 17 69.60 18 3.80 1.60 4.40 3.40 4.40 14.60 0 12 -0.40 13 -7.40 19.80 -23 21.80 -73.20 56.20 -111.40 76.60 -76.80 40.60 -159.20 65.40 -242.80 73 -34.80 3.20 -125 1.60 -156.40 -2.80 -36.20 -5.20 -84.20 -16.60 -119 -28.20 -17.60 -6 -32.20 -10.60 -32.40 -10.20 -1.40 1.40 22 39.80 37.20 60.80 94.40 132.20 250.20 219.40 418.20 234.20 26.80 2.40 77.20 1 107.40 -2.80z"/>
 </g>
 <g fill="#fffffe">
  <path d="M0 1024 l0 -1024 1024 0 1024 0 0 1024 0 1024 -1024 0 -1024 0 0 -1024z m1088.20 892 c154.20 -12 305.20 -65.20 433.60 -152.60 110.60 -75.40 198.60 -168.20 266.40 -280.40 65.60 -108.60 102 -214.20 120 -347 5.40 -40 7.40 -130.40 4 -175.60 -16.80 -221 -117.60 -429.20 -283 -584.20 -193.80 -181.60 -455.60 -267.40 -714.80 -234.20 -339.60 43.60 -628.40 283.80 -737.20 612.80 -9.60 29 -23.60 85.40 -30 121.20 -15 82.60 -17.20 178.80 -6 266 19 151.60 82.80 304.80 176.60 425 83.80 107.40 187.60 193.20 307.20 254 45.60 23 76 36 120.60 51 69.80 23.20 143.20 38.20 215.40 43.80 30.40 2.40 97 2.40 127.20 0.20z"/>
  <path d="M980 1603.80 c-168 -14.80 -324 -102 -418.20 -234.20 -16.80 -23.40 -50.80 -81.20 -49 -83.20 0.60 -0.40 8.60 2.40 18 6.40 41 17.60 106.20 35.20 157.20 42.20 31.80 4.40 110.60 6.20 144.20 3 119 -10.80 239 -58 331.20 -130.40 25.40 -19.80 30.60 -25.40 30.60 -33 0 -5 -1.20 -7.20 -4.40 -8.60 -2.60 -1 -33.80 -9.20 -69.60 -18 -35.80 -8.80 -115 -28.60 -176 -44 -61 -15.40 -113.80 -28 -117 -28 -15.40 0 -14.60 9.40 4 46 14.40 28.40 36.40 62.20 53 81.60 4.40 5.20 7.20 10 6.40 10.60 -3 2.80 -38.20 9.80 -61 12.20 -68.80 7 -147.40 -14.20 -205 -55.40 -123 -88 -164.60 -242.40 -107 -396 22.80 -61 60.60 -118.60 110.60 -168.80 39.40 -39.60 75.60 -67 125.20 -94 178.60 -97.80 394.80 -91.80 569.80 15.60 74 45.40 136.20 107.40 183 182 12.40 19.80 39.20 73.60 37.60 75.40 -0.80 0.60 -14.40 -3.60 -30.80 -9.20 -71.40 -24.60 -139.40 -36 -215.80 -36 -44.60 0 -74 2.20 -111 8.20 -124.40 20.40 -237.20 73.60 -329.60 155.80 -11.40 10 -21.60 20.40 -22.80 23 -3 6.80 -0.40 14.40 6 17.80 3 1.60 38.20 11 78.40 21.20 40.20 10 122.60 31 183 46.40 60.60 15.60 113.40 28.60 117.60 29.20 8.60 1 15.40 -3.60 15.40 -10.20 0 -4.40 -12.80 -29 -29.60 -57.80 -11.80 -19.80 -34.40 -50.60 -51.20 -69.60 l-11.40 -13 14 -6.60 c41 -19 103.60 -25.40 151.20 -15.40 55.60 11.60 103.20 36.80 145.20 76.60 112.60 107 131.20 274 45.80 408.40 -83.80 131.60 -235 225.20 -399 247 -29.40 3.80 -90.80 5.40 -119 2.80z"/>
 </g>
</svg>