<?xml version="1.0" encoding="utf-8"?>
<!DOCTYPE svg PUBLIC "-//W3C//DTD SVG 1.0//EN" "http://www.w3.org/TR/2001/REC-SVG-20010904/DTD/svg10.dtd">
<svg version="1.0" xmlns="http://www.w3.org/2000/svg" width="2048px" height="2048px" viewBox="0 0 2048 2048" preserveAspectRatio="xMidYMid meet">
 <g fill="#FFFFFF">
  <path d="M955 1921.80 c-153.40 -11.80 -301.40 -63.40 -431 -150.40 -78.40 -52.60 -152.20 -121.60 -212.20 -198.40 -93.80 -120.20 -157.60 -273.40 -176.60 -425 -8.20 -64.40 -9.20 -160 -2.40 -221 11.40 -100.60 41 -203 84.80 -292 114.40 -232.20 319 -403.80 563.40 -472.80 108.80 -30.60 220.60 -40.40 335 -29 426.20 42.20 769.60 393.60 802.20 821 3.40 46.80 1.40 148.20 -4 187.80 -18.20 133.20 -54.40 238.40 -120 347 -43.40 72 -99.40 140.80 -158.20 194.60 -152.80 139.80 -341.40 222.80 -541.80 238.40 -30.20 2.20 -108.80 2.20 -139.20 -0.20z m138.40 -326.80 c180.40 -23.80 350.80 -139.60 419.60 -286 23.20 -49 35.20 -104.80 32.20 -148.60 -8.80 -124.60 -94 -237.60 -207.80 -275.40 -51.20 -17 -92.40 -19 -140.20 -6.80 -17.60 4.60 -41.20 13.40 -41.20 15.80 0 0.80 2 3 4.20 5.20 7.60 6.80 39 49.80 49.80 68.20 23.60 39.80 30 53.40 30 64 0 23.60 -5 23.20 -145 -12.80 -60.40 -15.60 -142.80 -36.60 -183 -46.60 -40.20 -10.20 -75.40 -19.60 -78.20 -21.20 -6.60 -3.20 -7.80 -6.40 -7.80 -18.80 0 -12 2.60 -15.40 30.80 -39.60 103.80 -89.80 232.60 -143.80 371.20 -156.40 34 -3 110.40 -2.40 142 1 50.60 5.60 98 15.80 139.60 29.80 11.20 3.80 20.40 6.60 20.40 6 0 -0.40 -4.60 -10 -10.20 -21 -36.40 -72.80 -100.60 -147.40 -168 -195 -91 -64.60 -186.60 -98.80 -297.80 -106.80 -59.20 -4.20 -134.20 5.80 -198 26.40 -136.40 44.20 -249 137.20 -311.80 257.80 -38.40 73.80 -54 156.20 -42.40 224.20 14.80 85.80 59 156.80 128.60 206.60 55.80 40 134 62 195.20 55.20 19.60 -2.20 47.20 -7.40 51 -9.60 0.80 -0.40 -1.60 -4.60 -5.40 -9.20 -14.60 -18 -33.80 -48.80 -47.20 -75.40 -12.60 -25 -14 -29.20 -14 -39.60 0 -6.40 1 -12.60 2.40 -14 6.20 -6.20 25.40 -2.80 137.60 25.60 61 15.40 140.20 35.20 176 44 35.80 8.80 67 17 69.60 18 3.80 1.60 4.40 3.40 4.40 14.60 0 12 -0.40 13 -7.40 19.80 -23 21.80 -73.20 56.20 -111.40 76.60 -76.80 40.60 -159.20 65.40 -242.80 73 -34.80 3.20 -125 1.60 -156.40 -2.80 -36.20 -5.20 -84.20 -16.60 -119 -28.20 -17.60 -6 -32.20 -10.60 -32.40 -10.20 -1.40 1.40 22 39.80 37.20 60.80 94.40 132.20 250.20 219.40 418.20 234.20 26.80 2.40 77.20 1 107.40 -2.80z"/>
 </g>
</svg>
